<svg id="visual" viewBox="0 0 900 600" width="900" height="600" xmlns="http://www.w3.org/2000/svg" xmlns:xlink="http://www.w3.org/1999/xlink" version="1.1"><rect x="0" y="0" width="900" height="600" fill="#e15c5c"></rect><path d="M0 182L129 238L257 298L386 297L514 285L643 185L771 279L900 305L900 601L771 601L643 601L514 601L386 601L257 601L129 601L0 601Z" fill="#ff4141"></path><path d="M0 270L129 237L257 381L386 339L514 332L643 350L771 251L900 373L900 601L771 601L643 601L514 601L386 601L257 601L129 601L0 601Z" fill="#e03630"></path><path d="M0 420L129 380L257 412L386 365L514 325L643 352L771 353L900 367L900 601L771 601L643 601L514 601L386 601L257 601L129 601L0 601Z" fill="#c12b20"></path><path d="M0 445L129 470L257 479L386 484L514 496L643 470L771 417L900 457L900 601L771 601L643 601L514 601L386 601L257 601L129 601L0 601Z" fill="#a32010"></path><path d="M0 523L129 499L257 507L386 538L514 508L643 502L771 536L900 505L900 601L771 601L643 601L514 601L386 601L257 601L129 601L0 601Z" fill="#871400"></path></svg>