<svg id="visual" viewBox="0 0 900 600" width="900" height="600" xmlns="http://www.w3.org/2000/svg" xmlns:xlink="http://www.w3.org/1999/xlink" version="1.1"><path d="M0 253L82 127L164 121L245 133L327 163L409 115L491 133L573 265L655 247L736 169L818 211L900 163L900 0L818 0L736 0L655 0L573 0L491 0L409 0L327 0L245 0L164 0L82 0L0 0Z" fill="#972525"></path><path d="M0 331L82 235L164 169L245 241L327 283L409 211L491 217L573 319L655 289L736 301L818 259L900 283L900 161L818 209L736 167L655 245L573 263L491 131L409 113L327 161L245 131L164 119L82 125L0 251Z" fill="#ad2c2c"></path><path d="M0 475L82 367L164 415L245 457L327 427L409 433L491 463L573 439L655 457L736 409L818 499L900 463L900 281L818 257L736 299L655 287L573 317L491 215L409 209L327 281L245 239L164 167L82 233L0 329Z" fill="#c43434"></path><path d="M0 541L82 469L164 493L245 529L327 511L409 511L491 547L573 505L655 505L736 445L818 541L900 529L900 461L818 497L736 407L655 455L573 437L491 461L409 431L327 425L245 455L164 413L82 365L0 473Z" fill="#db3c3c"></path><path d="M0 601L82 601L164 601L245 601L327 601L409 601L491 601L573 601L655 601L736 601L818 601L900 601L900 527L818 539L736 443L655 503L573 503L491 545L409 509L327 509L245 527L164 491L82 467L0 539Z" fill="#f34444"></path></svg>